<?xml version="1.0" encoding="utf-8"?><svg xmlns="http://www.w3.org/2000/svg" xmlns:xlink="http://www.w3.org/1999/xlink"><symbol viewBox="0 0 25 19.444" id="address-card" xmlns="http://www.w3.org/2000/svg"><path d="M22.917 0H2.083A2.084 2.084 0 000 2.083v15.278a2.084 2.084 0 002.083 2.083h20.834A2.084 2.084 0 0025 17.361V2.083A2.084 2.084 0 0022.917 0zM7.639 4.167a2.778 2.778 0 11-2.778 2.777 2.781 2.781 0 012.778-2.777zM12.5 14.444a.91.91 0 01-.972.833H3.75a.91.91 0 01-.972-.833v-.833a2.733 2.733 0 012.917-2.5h.217a4.469 4.469 0 003.454 0h.217a2.733 2.733 0 012.917 2.5zm9.722-2.292a.348.348 0 01-.347.347h-6.25a.348.348 0 01-.347-.347v-.694a.348.348 0 01.347-.347h6.25a.348.348 0 01.347.347zm0-2.778a.348.348 0 01-.347.347h-6.25a.348.348 0 01-.347-.347V8.68a.348.348 0 01.347-.347h6.25a.348.348 0 01.347.347zm0-2.778a.348.348 0 01-.347.347h-6.25a.348.348 0 01-.347-.347V5.9a.348.348 0 01.347-.347h6.25a.348.348 0 01.347.347z"/></symbol><symbol viewBox="0 0 7 12.242" id="arrow" xmlns="http://www.w3.org/2000/svg"><path d="M4.89 6.119L.254 1.49a.871.871 0 010-1.236.882.882 0 011.239 0l5.252 5.25A.873.873 0 016.77 6.71L1.5 11.991a.875.875 0 11-1.239-1.236L4.89 6.122z"/></symbol><symbol viewBox="0 0 11 15" id="check" xmlns="http://www.w3.org/2000/svg"><path d="M1.625 8.876l2.134 4.004L10.162.505"/></symbol><symbol viewBox="0 0 25 18.75" id="email" xmlns="http://www.w3.org/2000/svg"><path d="M24.526 6.192a.294.294 0 01.474.229v9.985a2.345 2.345 0 01-2.344 2.344H2.344A2.345 2.345 0 010 16.406v-9.98A.292.292 0 01.474 6.2c1.094.849 2.544 1.928 7.524 5.547 1.031.752 2.769 2.334 4.5 2.324 1.743.015 3.516-1.6 4.507-2.324 4.981-3.618 6.426-4.7 7.519-5.552zM12.5 12.5c1.133.019 2.764-1.426 3.584-2.022 6.479-4.7 6.973-5.112 8.467-6.284A1.168 1.168 0 0025 3.272v-.928A2.345 2.345 0 0022.656 0H2.344A2.345 2.345 0 000 2.344v.928a1.176 1.176 0 00.449.923c1.494 1.167 1.987 1.582 8.467 6.284.82.595 2.451 2.04 3.584 2.021z"/></symbol><symbol viewBox="0 0 25 25" id="tel" xmlns="http://www.w3.org/2000/svg"><path d="M22.321 0H2.679A2.679 2.679 0 000 2.679v19.642A2.679 2.679 0 002.679 25h19.642A2.679 2.679 0 0025 22.321V2.679A2.679 2.679 0 0022.321 0zm-.914 17.15l-.837 3.627a.837.837 0 01-.815.649A16.184 16.184 0 013.571 5.25a.876.876 0 01.649-.815l3.627-.837a1.017 1.017 0 01.188-.021.908.908 0 01.77.507l1.674 3.906a1 1 0 01.067.33.948.948 0 01-.307.648l-2.114 1.73a12.941 12.941 0 006.182 6.182l1.73-2.114a.948.948 0 01.648-.307 1 1 0 01.33.067l3.906 1.674a.907.907 0 01.507.77.971.971 0 01-.021.18z"/></symbol></svg>